<?xml version="1.0" encoding="UTF-8" standalone="no"?>
<svg
   version="1.0"
   width="1116.9777pt"
   height="1027.196pt"
   viewBox="0 0 1116.9777 1027.196"
   preserveAspectRatio="xMidYMid meet"
   id="svg4"
   sodipodi:docname="logo.svg"
   inkscape:version="1.1 (c68e22c387, 2021-05-23)"
   xmlns:inkscape="http://www.inkscape.org/namespaces/inkscape"
   xmlns:sodipodi="http://sodipodi.sourceforge.net/DTD/sodipodi-0.dtd"
   xmlns="http://www.w3.org/2000/svg"
   xmlns:svg="http://www.w3.org/2000/svg">
  <defs
     id="defs8" />
  <sodipodi:namedview
     id="namedview6"
     pagecolor="#ffffff"
     bordercolor="#999999"
     borderopacity="1"
     inkscape:pageshadow="0"
     inkscape:pageopacity="0"
     inkscape:pagecheckerboard="0"
     inkscape:document-units="pt"
     showgrid="false"
     showborder="true"
     fit-margin-top="0"
     fit-margin-left="0"
     fit-margin-right="0"
     fit-margin-bottom="0"
     inkscape:zoom="0.22627417"
     inkscape:cx="1336.8738"
     inkscape:cy="797.70484"
     inkscape:window-width="1920"
     inkscape:window-height="1051"
     inkscape:window-x="-9"
     inkscape:window-y="-9"
     inkscape:window-maximized="1"
     inkscape:current-layer="g1683" />
  <g
     transform="matrix(0.1,0,0,-0.1,195.12797,653.54442)"
     fill="#000000"
     stroke="none"
     id="g2" />
  <g
     id="g1683"
     transform="translate(945.19337,164.5587)">
    <g
       id="g1806"
       transform="matrix(2.9795851,0,0,2.9795851,1114.6609,-369.87074)">
      <path
         style="fill:#a1dfe3;stroke-width:0.75"
         d="m -516.40007,412.84734 c -7.63791,-1.45809 -12.4264,-3.1407 -20.07627,-7.05455 -10.92743,-5.59072 -21.06888,-14.62842 -27.00231,-24.06348 -3.87603,-6.16349 -118.91975,-205.59656 -121.15857,-210.03343 -3.50964,-6.95534 -4.48427,-10.03204 -5.69386,-17.97428 -2.04829,-13.44924 -0.85959,-29.13078 2.98151,-39.33257 6.51068,-17.292078 21.82163,-33.004681 39.21798,-40.246802 9.5048,-3.956856 18.38548,-5.447342 29.85034,-5.009921 10.97094,0.418576 17.92518,1.989681 26.88965,6.07492 11.56399,5.269881 22.3712,14.384997 29.29148,24.705304 7.04451,10.505579 84.45125,145.249769 85.33056,148.537449 1.86655,6.9788 -1.63392,15.12823 -8.14099,18.95305 -6.52694,3.83649 -15.9793,2.53458 -21.04828,-2.89907 -0.92267,-0.98904 -20.37044,-34.18127 -43.21728,-73.76049 -46.20848,-80.0503 -45.05689,-78.32312 -55.54134,-83.30216 -14.58534,-6.92655 -30.58362,-4.46083 -41.71264,6.42892 -10.95152,10.71606 -14.07475,27.96248 -7.54456,41.66102 1.17984,2.475 28.46657,50.0625 60.63716,105.75 63.33418,109.63189 62.25036,107.92112 71.49266,112.84722 6.26569,3.33959 11.12839,4.51126 18.68858,4.50306 12.6886,-0.0138 23.766,-6.19146 30.60127,-17.06583 4.94131,-7.86124 117.51765,-203.30613 119.10793,-206.78445 0.94296,-2.0625 2.08563,-6.09068 2.53924,-8.95151 2.49164,-15.71405 -5.68459,-31.49807 -19.84408,-38.30852 -19.88026,-9.562012 -42.57885,-0.40926 -50.73628,20.45838 -1.36076,3.48099 -1.68235,5.80402 -1.68568,12.17665 -0.005,9.44524 0.64794,11.36669 8.56592,25.20949 4.69046,8.20018 5.55065,10.25389 5.81279,13.878 0.39025,5.39516 -0.82389,9.06188 -4.26413,12.87777 -3.52264,3.90728 -7.64248,5.7518 -12.84698,5.7518 -5.04094,0 -9.35855,-1.844 -12.38295,-5.2886 -3.16269,-3.6021 -13.44983,-21.82956 -15.67392,-27.77212 -4.63167,-12.37538 -5.47547,-31.06469 -1.95747,-43.35589 8.95855,-31.299357 36.82807,-52.55045 68.91674,-52.55045 28.7525,0 54.67093,17.190134 65.83689,43.66565 6.15521,14.59456 6.31523,39.902 0.34386,54.3827 -1.98495,4.81356 -119.79655,209.56899 -124.71255,216.74923 -3.49982,5.11178 -10.08411,11.84804 -15.51863,15.87683 -6.4795,4.80345 -17.57324,10.1372 -25.22697,12.12886 -7.74521,2.01547 -22.58478,2.57607 -30.11882,1.13782 z"
         id="path1697" />
      <path
         style="fill:#60cad9;stroke-width:0.75"
         d="m -515.8942,412.05696 c -14.73396,-2.80036 -26.33604,-8.71993 -36.64357,-18.69617 -3.02858,-2.93125 -6.61395,-6.84829 -7.96749,-8.70454 -3.39533,-4.65638 -122.39388,-210.72548 -124.97598,-216.42017 -4.09137,-9.02334 -5.48131,-16.11961 -5.49996,-28.07983 -0.0141,-9.01241 0.27621,-11.95828 1.69476,-17.19988 6.7353,-24.887278 24.54792,-43.225888 49.31438,-50.770563 6.07468,-1.850548 7.79583,-2.039362 18.69081,-2.050415 10.06817,-0.01022 12.96592,0.253313 18,1.636958 17.10959,4.702664 32.11176,15.535992 41.43889,29.92375 5.76853,8.89837 82.84088,142.71516 83.92238,145.71015 2.1323,5.90497 0.64915,11.64976 -4.2877,16.60791 -2.79793,2.80999 -4.29352,3.66766 -7.74095,4.43916 -3.70434,0.829 -4.80272,0.78928 -8.2534,-0.29845 -2.2998,-0.72496 -5.0568,-2.31709 -6.5298,-3.77091 -1.48816,-1.46878 -19.71903,-32.29795 -43.79514,-74.05946 -31.85248,-55.25008 -42.13,-72.48267 -45.12852,-75.66825 -14.23146,-15.119268 -37.71185,-16.052185 -52.47996,-2.08512 -8.42016,7.96343 -11.7407,15.7478 -11.76687,27.58512 -0.0144,6.49383 0.28916,8.66058 1.73056,12.35413 1.60294,4.1075 115.38953,201.9828 121.29107,210.92563 10.35466,15.6908 31.49215,20.69433 49.31741,11.6741 9.08181,-4.59573 8.05336,-2.97758 68.80123,-108.25049 30.81057,-53.3931 57.67337,-99.95513 59.69512,-103.47117 2.02176,-3.51604 4.38177,-8.27935 5.24448,-10.58514 4.98341,-13.31937 1.33664,-28.9427 -9.16682,-39.27206 -5.32805,-5.23974 -11.0121,-8.22984 -18.89744,-9.94102 -4.78806,-1.03905 -6.55186,-1.08894 -11.7442,-0.33214 -20.04664,2.92182 -34.20957,20.21093 -32.56295,39.75058 0.58818,6.97959 2.07148,10.85805 8.47012,22.14714 3.05594,5.39158 5.7699,10.94169 6.03102,12.33357 1.24019,6.61075 -1.66481,13.45893 -7.28776,17.18001 -6.92158,4.58049 -17.62322,2.41685 -22.29326,-4.50722 -2.6904,-3.98894 -8.7697,-14.62724 -11.49091,-20.1082 -5.45582,-10.98891 -7.92727,-27.76315 -5.95108,-40.39121 3.59865,-22.99572 17.72311,-42.246643 38.51701,-52.496723 11.7478,-5.790929 17.32917,-7.042962 31.29247,-7.019653 13.41425,0.0224 18.98179,1.187565 29.72047,6.219881 8.27517,3.877872 14.35482,8.272435 20.95321,15.145628 6.4262,6.693835 9.22017,10.708827 13.09988,18.824797 5.00851,10.4773 6.2474,16.39068 6.2474,29.81956 0,9.65067 -0.27979,12.64401 -1.64741,17.625 -2.40516,8.75981 -4.84113,13.4693 -25.09459,48.51537 -10.08686,17.45404 -36.45959,63.12213 -58.60608,101.48463 -22.14648,38.3625 -41.77603,71.99311 -43.62122,74.73469 -1.84519,2.74158 -6.16937,7.68669 -9.60928,10.98916 -9.21832,8.84995 -20.02741,14.73007 -32.69238,17.78457 -6.99623,1.68733 -20.87695,2.0713 -27.73795,0.76729 z"
         id="path1695" />
      <path
         style="fill:#01ade2;stroke-width:0.75"
         d="m -514.03125,411.64681 c -7.44541,-1.12382 -18.84604,-5.21679 -25.24747,-9.06416 -12.13509,-7.29341 -18.76812,-14.42661 -27.57999,-29.65965 -80.27288,-138.76758 -116.89168,-202.65376 -118.58789,-206.89175 -1.1557,-2.8875 -2.49134,-6.9375 -2.9681,-9 -0.47677,-2.0625 -1.22853,-4.50067 -1.67058,-5.41815 -1.04726,-2.1736 -1.04726,-20.7401 0,-22.9137 0.44205,-0.91748 1.19133,-3.33895 1.66505,-5.38105 5.60389,-24.156804 25.32948,-44.065265 50.3141,-50.780561 9.01191,-2.422195 25.24575,-2.413586 34.44988,0.01827 16.37702,4.327027 31.70968,15.147109 40.61342,28.660431 6.6811,10.14 83.86986,144.84236 84.64158,147.70831 1.70088,6.31658 -1.37295,13.52224 -7.23348,16.95674 -6.57153,3.85117 -15.62899,2.19697 -20.01745,-3.65587 -1.00805,-1.34443 -20.33814,-34.50692 -42.95575,-73.69442 -44.85504,-77.71631 -44.25502,-76.80571 -53.98441,-81.92726 -15.41709,-8.115543 -33.04727,-5.66578 -45.02453,6.2563 -10.34858,10.30089 -14.10368,25.78196 -9.53572,39.31273 0.76865,2.2768 28.39164,50.86874 61.38444,107.98209 66.61627,115.31845 63.62526,110.66212 74.61848,116.1644 10.38031,5.19551 20.75301,5.71074 31.57736,1.56849 5.16296,-1.97574 12.55525,-7.53002 15.94676,-11.98175 4.19692,-5.50893 120.57391,-207.71529 122.42394,-212.71301 3.7018,-10.00014 3.01575,-20.17658 -2.04138,-30.28041 -10.01988,-20.0191 -35.26483,-26.833081 -54.3001,-14.65637 -10.80658,6.91289 -17.63829,19.38092 -17.60208,32.1242 0.021,7.38676 1.98006,13.07884 8.41996,24.46435 5.23789,9.26039 6.15853,11.41511 6.40901,15 0.9762,13.97174 -16.14898,21.95762 -26.27915,12.2546 -2.77624,-2.65917 -12.88316,-20.42856 -15.60207,-27.43062 -3.24456,-8.35577 -4.70676,-17.9914 -4.23195,-27.88774 0.87853,-18.31104 8.17147,-34.41269 21.25199,-46.921012 6.34408,-6.066562 10.46784,-8.911056 18.45157,-12.727549 10.60832,-5.071132 16.36081,-6.261333 30.19456,-6.247298 10.85374,0.01101 12.6296,0.204114 18.59124,2.02156 19.58187,5.969671 34.69065,18.552669 43.56615,36.283059 3.01722,6.02744 6.278,16.24739 7.36749,23.09124 0.78859,4.9537 0.23537,18.41033 -0.84096,20.4556 -0.37466,0.71192 -1.25574,3.58023 -1.95797,6.37401 -0.70224,2.79378 -2.36793,7.35646 -3.70157,10.13928 -1.33363,2.78282 -23.52127,41.50324 -49.30587,86.04539 -25.78459,44.54215 -52.522,90.74782 -59.41645,102.67929 -15.40926,26.66711 -15.73782,27.15465 -23.28786,34.55643 -9.19599,9.0154 -21.02742,15.38443 -33.50542,18.03645 -6.84036,1.45382 -19.0391,1.98019 -25.00878,1.07911 z"
         id="path1693" />
      <path
         style="fill:#00acd3;stroke-width:0.75"
         d="m -500.76874,395.55056 c -6.67563,-7.62063 -12.13751,-14.05356 -12.13751,-14.29542 0,-0.24184 2.27813,-0.22173 5.0625,0.0447 12.35105,1.18185 26.96347,-5.34977 34.23215,-15.30146 4.54946,-6.22877 120.66506,-208.09133 122.40999,-212.80514 3.7018,-10.00014 3.01575,-20.17658 -2.04138,-30.28041 -10.01988,-20.0191 -35.26483,-26.83308 -54.3001,-14.65637 -10.80658,6.91289 -17.63829,19.38092 -17.60208,32.1242 0.021,7.38676 1.98006,13.07884 8.41996,24.46435 5.23789,9.26039 6.15853,11.41511 6.40901,15 0.9762,13.97174 -16.14898,21.95762 -26.27915,12.2546 -2.77624,-2.65917 -12.88316,-20.42856 -15.60207,-27.43062 -3.24456,-8.35577 -4.70676,-17.9914 -4.23195,-27.88774 0.87853,-18.31104 8.17147,-34.41269 21.25199,-46.921011 6.34408,-6.066562 10.46784,-8.911056 18.45157,-12.727549 10.60832,-5.071132 16.36081,-6.261333 30.19456,-6.247298 10.85374,0.01101 12.6296,0.204114 18.59124,2.02156 19.58187,5.969671 34.69065,18.552669 43.56615,36.283058 3.01722,6.02744 6.278,16.24739 7.36749,23.09124 0.78859,4.9537 0.23537,18.41033 -0.84096,20.4556 -0.37466,0.71192 -1.25574,3.58023 -1.95797,6.37401 -0.70224,2.79378 -2.36793,7.35646 -3.70157,10.13928 -1.33363,2.78282 -23.52127,41.50324 -49.30587,86.04539 -25.78459,44.54215 -52.522,90.74782 -59.41645,102.67929 -6.89445,11.93146 -13.48591,23.06896 -14.64771,24.75 -8.02219,11.60759 -21.78561,21.39171 -35.39853,25.16404 -3.01162,0.83457 -5.6737,1.51739 -5.91573,1.51739 -0.24204,0 -5.90194,-6.23506 -12.57758,-13.85569 z M -603.02672,279.09375 c -25.27984,-28.77188 -47.69559,-54.84375 -49.8128,-57.9375 -2.11721,-3.09375 -5.81007,-9 -8.20636,-13.125 -2.39629,-4.125 -8.1929,-13.97802 -12.88137,-21.89559 -9.88016,-16.68499 -11.78682,-20.70684 -14.06378,-29.66572 -0.91719,-3.60871 -1.84283,-6.38608 -2.05698,-6.17193 -0.63603,0.63603 -1.27635,-10.58278 -0.86896,-15.22465 0.20719,-2.36066 0.65941,-4.96711 1.00494,-5.79211 0.34553,-0.825 1.18701,-3.8625 1.86996,-6.75 5.65375,-23.904065 25.02546,-43.298093 49.93594,-49.993461 9.01191,-2.422195 25.24575,-2.413586 34.44988,0.01827 16.37702,4.327027 31.70968,15.147109 40.61342,28.660431 6.6811,10.14 83.86986,144.84236 84.64158,147.70831 1.70088,6.31658 -1.37295,13.52224 -7.23348,16.95674 -6.57153,3.85117 -15.62899,2.19697 -20.01745,-3.65587 -1.00805,-1.34443 -20.33814,-34.50692 -42.95575,-73.69442 -44.85504,-77.71631 -44.25502,-76.80571 -53.98441,-81.92726 -15.41709,-8.115543 -33.04727,-5.66578 -45.02453,6.2563 -8.05615,8.01903 -12.16152,18.89659 -11.29266,29.92096 0.62196,7.89161 2.09189,11.72324 9.36456,24.41041 3.65393,6.37428 20.09374,35.04584 36.53292,63.71459 16.43918,28.66875 33.48494,58.5375 37.87948,66.375 4.39452,7.8375 10.40572,18.44951 13.35819,23.58224 4.99221,8.67873 5.88324,10.54276 5.03956,10.54276 -0.18072,0 -21.01207,-23.54062 -46.2919,-52.3125 z"
         id="path1691" />
      <path
         style="fill:#00abb4;stroke-width:0.75"
         d="m -444.42656,347.33344 -9.86274,-11.23456 1.70276,-3.65882 c 3.36148,-7.22298 18.54847,-34.05177 59.08777,-104.38239 22.65898,-39.31047 41.83331,-73.31974 42.60964,-75.57616 4.77859,-13.88924 0.76839,-29.75735 -10.08646,-39.91154 -10.53385,-9.85389 -24.5331,-12.927033 -38.08723,-8.36098 -15.47944,5.21465 -26.12836,19.98283 -26.08234,36.17167 0.021,7.38676 1.98005,13.07884 8.41995,24.46435 5.23789,9.26039 6.15853,11.41511 6.40901,15 0.9762,13.97174 -16.14898,21.95762 -26.27915,12.2546 -2.77624,-2.65917 -12.88316,-20.42856 -15.60207,-27.43062 -3.24456,-8.35577 -4.70676,-17.9914 -4.23195,-27.88774 0.87853,-18.31104 8.17147,-34.41269 21.252,-46.921011 6.34407,-6.066562 10.46783,-8.911056 18.45156,-12.727549 10.60832,-5.071132 16.36081,-6.261333 30.19456,-6.247298 10.85375,0.01101 12.6296,0.204114 18.59124,2.02156 19.58187,5.969671 34.69065,18.552669 43.56615,36.283058 3.01722,6.02744 6.278,16.24739 7.36749,23.09124 0.7886,4.9537 0.23537,18.41033 -0.84096,20.4556 -0.37466,0.71192 -1.25574,3.58023 -1.95797,6.37401 -0.70223,2.79378 -2.37221,7.36539 -3.71107,10.15912 -2.88462,6.01919 -74.17409,129.39179 -93.52111,161.84637 -7.40496,12.4218 -14.37768,23.68007 -15.49495,25.01838 l -2.03139,2.43328 z m -54.19431,-80.65588 c -1.4243,-0.45406 -3.7868,-2.0483 -5.25,-3.54277 -2.32972,-2.37948 -19.2405,-31.03635 -72.12864,-122.22854 -11.40822,-19.67059 -14.46674,-24.37822 -18.27258,-28.125 -8.10561,-7.9798 -17.39885,-11.32924 -29.70994,-10.70795 -8.30835,0.41929 -13.43655,2.16115 -20.69754,7.03017 -2.70892,1.81653 -5.16733,3.30278 -5.46315,3.30278 -0.29581,0 -4.02319,-3.96562 -8.28306,-8.8125 -4.25988,-4.846875 -8.42911,-9.582119 -9.26497,-10.522765 l -1.51974,-1.710265 4.52932,-4.289735 c 8.23129,-7.795869 19.94415,-13.396075 32.6689,-15.619808 26.08633,-4.558757 54.4021,7.661416 68.9702,29.765313 2.08686,3.16635 45.5939,78.24263 79.66086,137.46376 4.93889,8.58564 5.95066,12.09979 4.89751,17.01045 -1.89702,8.8455 -11.10139,13.86741 -20.13717,10.98686 z"
         id="path1689" />
      <path
         style="fill:#00a990;stroke-width:0.75"
         d="m -387.65625,250.83358 c -5.15625,-5.9178 -9.46476,-11.388 -9.57446,-12.15599 -0.22853,-1.59982 8.31391,-17.46678 29.82018,-55.3888 8.2809,-14.60169 15.70343,-28.42983 16.49453,-30.7292 3.37847,-9.8197 2.59393,-19.81507 -2.32699,-29.64676 -6.2197,-12.42658 -19.9148,-20.951 -33.73079,-20.99549 -4.18734,-0.0135 -13.74177,2.35097 -17.73788,4.38964 -8.44493,4.30828 -16.14887,13.44586 -18.96208,22.49077 -1.66804,5.36302 -1.98305,14.95073 -0.68939,20.98284 0.4552,2.12254 3.40002,8.28944 6.91183,14.47441 l 6.11871,10.77625 0.0256,5.68338 c 0.0231,5.12073 -0.18712,5.96236 -2.1237,8.50135 -5.38521,7.06037 -14.11821,8.28688 -21.22662,2.9812 -2.81609,-2.10193 -13.82381,-20.68018 -16.83659,-28.41593 -5.01413,-12.87451 -5.75862,-30.21884 -1.86037,-43.34124 7.07572,-23.818566 24.91425,-41.324747 48.82295,-47.913352 5.04114,-1.389203 7.91773,-1.651495 18,-1.641266 10.85374,0.01101 12.6296,0.204114 18.59124,2.02156 19.58187,5.969671 34.69065,18.552669 43.56615,36.283058 3.01722,6.02744 6.278,16.24739 7.36749,23.09124 0.78859,4.95371 0.23537,18.41033 -0.84096,20.4556 -0.37466,0.71192 -1.25574,3.58023 -1.95797,6.37401 -0.70224,2.79379 -2.38917,7.40078 -3.74876,10.23776 -3.80573,7.94122 -53.83542,92.48071 -54.60816,92.27611 -0.0655,-0.0173 -4.33778,-4.87334 -9.49403,-10.79115 z"
         id="path1687" />
      <path
         style="fill:#00a87b;stroke-width:0.75"
         d="m -339.34987,164.14281 -9.81863,-11.2362 0.58642,-3.56268 c 2.31152,-14.04327 -1.54243,-27.05602 -10.81097,-36.50294 -7.70588,-7.8542 -17.18546,-11.6784 -28.98327,-11.69227 l -6.40493,-0.008 -9.90646,-11.390523 c -7.33174,-8.430099 -9.70497,-11.633296 -9.13122,-12.324613 1.14798,-1.383231 11.4723,-4.606784 17.91268,-5.592855 7.26778,-1.112753 19.90327,-0.447086 26.625,1.402668 24.17885,6.653776 42.58511,24.75233 49.1065,48.285543 0.83517,3.01384 1.5185,6.26578 1.5185,7.22654 0,0.96076 0.29796,1.56269 0.66213,1.33762 0.98829,-0.6108 1.65518,11.27775 0.92252,16.44569 -0.35088,2.475 -0.70906,3.825 -0.79593,3 -0.0869,-0.825 -0.6284,0.69375 -1.20336,3.375 -1.98124,9.23911 -7.82385,22.53478 -9.88134,22.48638 -0.31846,-0.007 -4.9974,-5.06991 -10.39764,-11.24982 z"
         id="path1685" />
    </g>
  </g>
</svg>
